<?xml version="1.0" encoding="UTF-8" standalone="no"?>
<svg
   xmlns:dc="http://purl.org/dc/elements/1.1/"
   xmlns:cc="http://creativecommons.org/ns#"
   xmlns:rdf="http://www.w3.org/1999/02/22-rdf-syntax-ns#"
   xmlns:svg="http://www.w3.org/2000/svg"
   xmlns="http://www.w3.org/2000/svg"
   xmlns:sodipodi="http://sodipodi.sourceforge.net/DTD/sodipodi-0.dtd"
   xmlns:inkscape="http://www.inkscape.org/namespaces/inkscape"
   width="16"
   height="16"
   version="1.1"
   viewBox="0 0 16 16"
   id="svg953"
   sodipodi:docname="icon_brain_area.svg"
   inkscape:version="0.92.3 (2405546, 2018-03-11)">
  <metadata
     id="metadata959">
    <rdf:RDF>
      <cc:Work
         rdf:about="">
        <dc:format>image/svg+xml</dc:format>
        <dc:type
           rdf:resource="http://purl.org/dc/dcmitype/StillImage" />
        <dc:title />
      </cc:Work>
    </rdf:RDF>
  </metadata>
  <defs
     id="defs957" />
  <sodipodi:namedview
     pagecolor="#ffffff"
     bordercolor="#666666"
     borderopacity="1"
     objecttolerance="10"
     gridtolerance="10"
     guidetolerance="10"
     inkscape:pageopacity="0"
     inkscape:pageshadow="2"
     inkscape:window-width="1916"
     inkscape:window-height="1041"
     id="namedview955"
     showgrid="false"
     inkscape:zoom="16"
     inkscape:cx="4.0806531"
     inkscape:cy="-4.2711631"
     inkscape:window-x="0"
     inkscape:window-y="18"
     inkscape:window-maximized="0"
     inkscape:current-layer="svg953" />
  <path
     style="fill:#a5b7f3;fill-opacity:1;stroke:none;stroke-width:0.02918669"
     d="m 4.6751982,14.154894 c 0.4548,-0.183631 0.700137,-0.528219 0.701086,-0.984707 3.09e-4,-0.149333 -0.01709,-0.246975 -0.06219,-0.348923 l -0.06262,-0.141563 0.48956,-0.490195 0.489558,-0.490195 h 0.8686257 2.868627 v -0.2189 -0.218899 H 6.9975159 6.0271872 l -0.528759,0.546763 -0.528759,0.546764 -0.171851,-0.08707 c -0.154949,-0.07851 -0.199179,-0.08708 -0.449737,-0.08708 -0.255259,0 -0.293781,0.0078 -0.473059,0.09608 -0.223201,0.109881 -0.372954,0.264957 -0.485006,0.502244 -0.108695,0.230176 -0.108036,0.558017 0.0016,0.794406 0.102612,0.221254 0.303782,0.431232 0.511181,0.533563 0.223015,0.110036 0.565627,0.131196 0.772406,0.0477 z M 2.3663212,12.01209 c 0.08957,-0.0378 0.210565,-0.105119 0.268886,-0.149603 0.119909,-0.09146 0.285304,-0.328063 0.343597,-0.491526 l 0.03903,-0.109449 h 0.574523 0.574524 l 0.17117,-0.184434 c 0.09414,-0.101439 0.381313,-0.422983 0.638155,-0.714542 l 0.466987,-0.5301063 1.262326,-5.34e-4 3.2623237,-5.31e-4 V 9.5978707 9.3643767 H 6.6291912 c -1.269502,0 -1.342282,0.0029 -1.408931,0.05528 -0.03865,0.03041 -0.338261,0.358756 -0.665794,0.7296673 l -0.595515,0.674385 h -0.484163 -0.484166 l -0.04935,-0.138637 c -0.108071,-0.303621 -0.410709,-0.574436 -0.72663,-0.650225 -0.457819,-0.1098285 -0.959819,0.123404 -1.165576,0.541537 -0.06204,0.126073 -0.07143,0.18549 -0.07143,0.451632 0,0.260704 0.01001,0.326777 0.06703,0.442539 0.101403,0.205846 0.273132,0.382574 0.478143,0.492064 0.160177,0.08554 0.217183,0.09982 0.432576,0.108361 0.209181,0.0083 0.273625,-9.09e-4 0.410936,-0.05889 z m -0.690844,-0.460342 c -0.219514,-0.135666 -0.344622,-0.418401 -0.280234,-0.633309 0.11921,-0.397888 0.524519,-0.57402 0.863618,-0.375295 0.435217,0.255054 0.367682,0.886836 -0.11376,1.064236 -0.122591,0.04517 -0.350137,0.01822 -0.469624,-0.05563 z m 0.531395,-2.6663773 c 0.311948,-0.0757 0.582656,-0.308437 0.715375,-0.615021 l 0.06927,-0.160005 2.488166,-4.99e-4 4.4881667,-4.99e-4 v -0.233494 -0.233493 l -4.4881677,-4.99e-4 -2.488166,-4.99e-4 -0.07212,-0.166484 c -0.189692,-0.437861 -0.687888,-0.710874 -1.130509,-0.619526 -0.33023,0.06815 -0.604181,0.276644 -0.75501,0.574598 -0.07652,0.151168 -0.08537,0.197337 -0.0854,0.445901 0,0.246683 0.009,0.294985 0.0822,0.437801 0.152445,0.297592 0.405417,0.500086 0.716099,0.573212 0.197013,0.04637 0.263745,0.04615 0.460096,-0.0015 z m 7.7609737,-2.979618 v -0.2189 H 6.7152252 5.4626042 l -0.643874,-0.711706 c -0.354132,-0.391438 -0.664939,-0.719788 -0.690683,-0.729667 -0.02574,-0.0099 -0.293855,-0.01796 -0.595803,-0.01796 h -0.548996 l -0.01966,-0.0783 c -0.06185,-0.246414 -0.380035,-0.58194 -0.635742,-0.670381 -0.389842,-0.134835 -0.819048,-0.02949 -1.10296,0.270701 -0.221599,0.234307 -0.27640098,0.375359 -0.27642698,0.711472 -1.9e-5,0.260367 0.0061,0.288508 0.09988,0.461517 0.261619,0.482515 0.797447,0.687564 1.302717,0.498519 0.22763,-0.08517 0.470758,-0.324593 0.567359,-0.558719 l 0.06924,-0.167823 0.498098,0.0022 0.498101,0.0022 0.510767,0.582207 c 0.280922,0.320214 0.564498,0.640989 0.630169,0.712833 l 0.119401,0.130625 h 1.361825 3.3618227 z m -8.2316117,-0.91544 c -0.556947,-0.253016 -0.417392,-1.063451 0.1907,-1.107437 0.52186,-0.03775 0.820777,0.539052 0.48835,0.942341 -0.169242,0.205321 -0.443646,0.272037 -0.67905,0.165096 z m 8.2316117,-0.981695 v -0.2189 H 7.0992189 6.2305942 l -0.491429,-0.492067 -0.491429,-0.492067 0.04886,-0.09448 c 0.121084,-0.23415 0.105039,-0.626337 -0.03624,-0.885921 -0.107242,-0.19704 -0.350306,-0.411014 -0.554213,-0.487889 -0.23873,-0.09 -0.598682,-0.07225 -0.818126,0.04035 -0.212297,0.10893 -0.374702,0.28068 -0.482746,0.510526 -0.07778,0.165463 -0.09099,0.226451 -0.08944,0.413029 0.0025,0.298388 0.08707,0.509917 0.285034,0.712689 0.337457,0.345644 0.755415,0.422488 1.187219,0.218277 l 0.184752,-0.08737 0.541928,0.541365 0.541928,0.541364 h 0.9555837 2.955584 z"
     id="path879"
     inkscape:connector-curvature="0"
     sodipodi:nodetypes="cccccccccccccccscccscccscccccccccccscsccccccscccccssccccccccccccccccccccccccccscccccccccccsccccccccccccccccccccccccccccc" />
  <path
     style="fill:#ffb31c;fill-opacity:1;stroke:none;stroke-width:0.02918669"
     d="m 11.120492,15.031731 c 0.815092,-0.227101 1.403055,-0.858328 1.564405,-1.679522 l 0.0499,-0.253934 -0.09622,-0.09927 c -0.232411,-0.239784 -0.760094,-0.56138 -1.129888,-0.688608 -0.220342,-0.07581 -0.465738,0.465367 -0.664315,0.464848 -0.193207,-5.05e-4 -0.296604,-0.04519 -0.346808,-0.149896 -0.04404,-0.09184 -0.0012,-0.244017 0.0812,-0.28809 0.125268,-0.06704 0.595226,-0.605975 1.008346,-0.47576 0.400289,0.12625 0.847401,0.3722 1.178757,0.648417 l 0.142751,0.118996 0.159935,-0.07073 c 0.514071,-0.227344 0.953179,-0.723244 1.135249,-1.282074 0.102265,-0.313883 0.12607,-0.788354 0.05547,-1.105676 -0.02707,-0.121648 -0.06196,-0.2290555 -0.07754,-0.2386845 -0.01558,-0.0096 -0.11653,-0.02979 -0.224332,-0.04479 -0.121455,-0.04765 0.01972,0.057047 -0.404441,-0.2863013 -0.301038,-0.243686 -0.372167,-0.349408 -0.319928,-0.475523 0.07654,-0.184797 0.234737,-0.192141 0.429073,-0.01992 0.573504,0.508244 0.271637,0.2914877 0.844777,0.4794925 l 0.184462,-0.121615 0.157664,-0.173401 c 0.176209,-0.193797 0.416009,-0.649235 0.490855,-0.932255 0.07384,-0.279241 0.0874,-0.804068 0.02829,-1.096207 -0.102,-0.504258 -0.347989,-0.943931 -0.732409,-1.309093 l -0.222192,-0.211061 -0.194735,0.01859 c -0.859071,0.08201 -0.58313,-0.064733 -1.283772,0.538748 -0.233002,0.200691 -0.306396,0.232911 -0.426002,0.187013 -0.07803,-0.02994 -0.129064,-0.1807 -0.09462,-0.279499 0.03775,-0.108263 0.380006,-0.5432972 0.786057,-0.683919 0.613062,-0.212313 0.07172,-0.08822 0.811399,-0.199631 0.100921,-0.0152 0.107212,-0.02356 0.181803,-0.241542 0.197614,-0.577498 0.151822,-1.159086 -0.134982,-1.714318 -0.20477,-0.396424 -0.748962,-0.885297 -1.07074,-0.961895 -0.06282,-0.01496 -0.08034,-0.0018 -0.125982,0.09447 -0.0904,0.190687 -0.331618,0.48819 -0.522929,0.644936 -0.342682,0.280769 -0.760663,-0.37523 -1.06091,-0.621016 -0.259159,0.02161 -0.32857,-0.0022 -0.382001,-0.13123 -0.07314,-0.176595 0.108161,-0.4531497 0.320852,-0.323919 0.281289,0.170911 0.553208,0.954202 0.843629,0.717626 0.178679,-0.145551 0.439014,-0.508434 0.492267,-0.686175 0.03118,-0.104068 0.02607,-0.125967 -0.07373,-0.315883 -0.283942,-0.540344 -0.752546,-0.91960103 -1.329956,-1.07638003 -0.263463,-0.07154 -0.817828,-0.07087 -1.094501,0.0013 C 9.283246,0.90962764 8.729388,1.4363937 8.516653,2.1711627 l -0.06722,0.232178 v 5.414146 c 0,5.0385243 0.0035,5.4277583 0.05052,5.6105573 0.190608,0.741085 0.731942,1.328303 1.438,1.559887 0.315007,0.103322 0.892197,0.124702 1.182545,0.0438 z"
     id="path879-3"
     inkscape:connector-curvature="0"
     sodipodi:nodetypes="cccccscccccssccccccccsccscssccsccccccccscccccccscccc" />
</svg>
